<?xml version="1.0" encoding="UTF-8"?>
<svg version="1.1" xmlns="http://www.w3.org/2000/svg" width="1121" height="1006">
<path d="M0 0 C3.40269988 2.65576576 6.35545692 5.3086237 9.14282227 8.60717773 C13.2718862 13.37940905 17.68612964 17.83005233 22.15234375 22.28515625 C23.01130753 23.14507675 23.8702713 24.00499725 24.75526428 24.89097595 C26.56177015 26.69815861 28.36952462 28.50409392 30.1784668 30.30883789 C32.9293681 33.05438393 35.67489221 35.80522546 38.41992188 38.55664062 C40.18457532 40.3206332 41.94953897 42.0843155 43.71484375 43.84765625 C44.93239601 45.06824486 44.93239601 45.06824486 46.17454529 46.31349182 C50.39467805 50.51651812 54.68251687 54.57423785 59.20716858 58.44871521 C62.39189779 61.2043686 65.43583543 64.11186786 68.5 67 C72.97836068 71.20076952 77.46861129 75.36700087 82.125 79.37109375 C84.38751181 81.33665089 86.59690683 83.35673309 88.8125 85.375 C93.18285684 89.32371445 97.70303079 93.0462721 102.28125 96.75 C104.92147729 98.93501569 107.4672972 101.19171391 110 103.5 C114.24651686 107.36533345 118.6301311 111.01398246 123.09375 114.625 C126.20392541 117.16664872 129.25905248 119.76589917 132.3125 122.375 C137.36206821 126.67957459 142.52997287 130.80348478 147.76879883 134.87451172 C151.76212259 137.99106333 155.65271371 141.20533349 159.5 144.5 C164.42343814 148.7128465 169.45142678 152.75973952 174.56518555 156.73876953 C179.0336599 160.22154199 183.43004283 163.78482424 187.8125 167.375 C193.98668706 172.42477132 200.27533761 177.29958611 206.6328125 182.11572266 C211.60748714 185.89807275 216.47994908 189.78804869 221.3125 193.75 C226.70129979 198.16569565 232.16558735 202.43107009 237.765625 206.578125 C244.14835837 211.3267492 250.38225156 216.27509885 256.65332031 221.16943359 C260.43222339 224.11722961 264.21627954 227.05839183 268 230 C272.55954742 233.54565133 277.11854845 237.091999 281.67578125 240.640625 C288.27201386 245.77594703 294.86968837 250.9087193 301.5 256 C313.83234253 265.47086583 326.08484368 275.04478421 338.30126953 284.66455078 C340.0619489 286.04870084 341.82554547 287.42906011 343.58984375 288.80859375 C349.7893547 293.65925362 355.94511743 298.55217629 362.0234375 303.5546875 C365.67061639 306.55092633 369.33505295 309.52554402 373 312.5 C374.38287242 313.62362417 375.765686 314.74732077 377.1484375 315.87109375 C379.42289058 317.7194341 381.69883125 319.56585155 383.9765625 321.41015625 C395.27467543 330.59195599 406.38063161 340.03678771 417 350 C417.80477783 350.72074707 418.60955566 351.44149414 419.4387207 352.18408203 C422.28908052 355.31782048 423.82836405 358.43465107 425.3828125 362.30859375 C425.67878326 363.01854996 425.97475403 363.72850616 426.2796936 364.4599762 C427.24187239 366.78042982 428.18442298 369.10821452 429.125 371.4375 C429.79305223 373.07106255 430.46134956 374.70452488 431.12988281 376.33789062 C439.6635049 397.28918552 447.3682716 418.43125443 454 440.0625 C454.2321521 440.81813232 454.4643042 441.57376465 454.70349121 442.35229492 C457.50081522 451.50253245 459.99925306 460.63776497 462 470 C458.74920878 469.38691615 456.71617557 468.2822267 454.0859375 466.296875 C453.33425293 465.73532715 452.58256836 465.1737793 451.80810547 464.59521484 C451.00518066 463.98629395 450.20225586 463.37737305 449.375 462.75 C447.65681142 461.46539458 445.9380478 460.18155797 444.21875 458.8984375 C443.34734375 458.24584961 442.4759375 457.59326172 441.578125 456.92089844 C437.70419398 454.03452635 433.79388575 451.19990293 429.875 448.375 C429.13491699 447.84100586 428.39483398 447.30701172 427.63232422 446.75683594 C421.91236552 442.63846567 416.1564243 438.572412 410.3918457 434.5168457 C402.97026547 429.28892041 395.61725612 423.96740937 388.26611328 418.64111328 C385.26211171 416.46562324 382.25521121 414.29416205 379.24804688 412.12304688 C376.99705189 410.49787152 374.74657353 408.87198244 372.49609375 407.24609375 C369.51090892 405.08994701 366.52378612 402.93652496 363.53515625 400.78515625 C348.08739439 389.65986355 332.75617191 378.3962256 317.63671875 366.82763672 C312.99779761 363.27865526 308.34301598 359.75486274 303.65356445 356.27294922 C295.4938472 350.21167657 287.591774 343.87285034 279.73779297 337.421875 C277.40318891 335.51168478 275.04732007 333.62890887 272.6875 331.75 C263.55216215 324.45695528 254.57694884 316.98513402 245.67041016 309.41601562 C243.99624159 307.99681397 242.31728525 306.58349229 240.63671875 305.171875 C234.7509661 300.22333315 228.9464523 295.2107817 223.25390625 290.0390625 C221.2311731 288.20913753 219.18630565 286.41118272 217.125 284.625 C212.78404209 280.84079822 208.54346701 276.94942586 204.31152344 273.04443359 C202.33210364 271.22037822 200.34392083 269.40893171 198.34399414 267.60717773 C187.95628089 258.18194187 178.0819753 248.2348396 168.17773438 238.30810547 C165.62300197 235.7476383 163.06375065 233.19174211 160.50317574 230.63711929 C158.50231866 228.63989953 156.50387834 226.6402751 154.50613022 224.63994598 C153.11229112 223.24513295 151.7164694 221.85230202 150.32058716 220.45953369 C145.87780241 216.0004353 141.56115651 211.49221998 137.46942139 206.70753479 C135.10330376 203.957998 132.60620995 201.33273275 130.125 198.6875 C125.68534707 193.91589105 121.48340859 189.0183201 117.40234375 183.93359375 C114.55037822 180.45094967 111.5914288 177.07252582 108.625 173.6875 C103.05289446 167.29780965 97.72889628 160.7629596 92.56640625 154.0390625 C91.44436562 152.57845101 90.3189782 151.12040813 89.19140625 149.6640625 C63.35314036 116.28746953 40.34587609 81.11349558 20.51660156 43.84960938 C19.10839263 41.20366367 17.6917995 38.56238705 16.2734375 35.921875 C11.96579247 27.86471017 7.82612604 19.73830146 3.875 11.5 C3.4840918 10.69199951 3.09318359 9.88399902 2.69042969 9.05151367 C2.33625977 8.30232666 1.98208984 7.55313965 1.6171875 6.78125 C1.30378418 6.12189453 0.99038086 5.46253906 0.66748047 4.78320312 C0 3 0 3 0 0 Z " fill="#000000" transform="translate(69,521)"/>
<path d="M0 0 C0.33 0.66 0.66 1.32 1 2 C0.03603469 4.38253336 -0.99212954 6.63792063 -2.12890625 8.9375 C-2.4695108 9.64098572 -2.81011536 10.34447144 -3.16104126 11.0692749 C-4.28581251 13.38405824 -5.42325706 15.69230809 -6.5625 18 C-6.94959137 18.78942993 -7.33668274 19.57885986 -7.73550415 20.39221191 C-33.23563317 72.38684526 -64.7744346 120.63668132 -101.61279297 165.31298828 C-102.8654999 166.83643159 -104.1072526 168.36886635 -105.34765625 169.90234375 C-114.34176272 181.01847171 -123.76460611 191.76205163 -133.47265625 202.2578125 C-135.73594217 204.71349521 -137.96652461 207.19362593 -140.1875 209.6875 C-150.96354122 221.65457736 -162.127794 233.22642152 -173.5 244.625 C-174.01233185 245.13992004 -174.5246637 245.65484009 -175.05252075 246.18536377 C-180.33398364 251.48790125 -185.65396141 256.69039638 -191.34179688 261.56005859 C-193.50406422 263.43771654 -195.50657991 265.44524391 -197.5 267.5 C-200.80986698 270.84933729 -204.20746949 273.99925956 -207.78125 277.0625 C-209.9839127 278.98595193 -212.13296486 280.96089901 -214.27636719 282.94995117 C-219.4613435 287.75998085 -224.7728882 292.31720269 -230.28515625 296.75390625 C-233.10673495 299.0883059 -235.80590712 301.51990598 -238.5 304 C-243.30933095 308.41645603 -248.27708567 312.56948658 -253.35839844 316.66748047 C-255.94232064 318.76489977 -258.50404554 320.88904169 -261.06884766 323.00976562 C-272.20215402 332.2115044 -283.41272275 341.30836938 -294.88916016 350.08007812 C-297.98878449 352.44933657 -301.07390233 354.83542139 -304.14453125 357.2421875 C-318.5821331 368.55331718 -333.34262623 379.3914615 -348.22827148 390.10351562 C-353.70402494 394.04849683 -359.13815588 398.0472194 -364.5625 402.0625 C-371.19919997 406.97099817 -377.89275618 411.78603296 -384.64990234 416.52709961 C-390.63205457 420.72717078 -396.56037627 424.9987817 -402.48071289 429.28540039 C-406.97590655 432.53959865 -411.48053695 435.77960332 -416 439 C-418.33395283 440.6658003 -420.66707958 442.33275423 -423 444 C-423.68529785 444.48936035 -424.3705957 444.9787207 -425.07666016 445.48291016 C-427.32409494 447.0897935 -429.56898645 448.7001466 -431.8125 450.3125 C-432.56217041 450.85092529 -433.31184082 451.38935059 -434.08422852 451.9440918 C-438.04652118 454.80723066 -441.95933668 457.72011617 -445.8203125 460.71875 C-446.59528076 461.32033936 -447.37024902 461.92192871 -448.16870117 462.54174805 C-449.65335256 463.70048866 -451.1329184 464.86578224 -452.60668945 466.03833008 C-453.27144287 466.55806396 -453.93619629 467.07779785 -454.62109375 467.61328125 C-455.2030249 468.07516846 -455.78495605 468.53705566 -456.38452148 469.01293945 C-458 470 -458 470 -461 470 C-459.73841214 462.14840268 -457.91303552 454.61251859 -455.625 447 C-455.10824707 445.27595947 -455.10824707 445.27595947 -454.58105469 443.51708984 C-447.07044003 418.83421107 -438.53276691 394.59936827 -428.25 370.93115234 C-427.18137989 368.42532167 -426.18164651 365.91094493 -425.21875 363.36328125 C-421.02335037 352.66850507 -413.65982848 346.16964054 -405 339 C-404.03449219 338.19046875 -403.06898438 337.3809375 -402.07421875 336.546875 C-400.33082708 335.11083683 -398.57699838 333.68736701 -396.8125 332.27734375 C-393.4613805 329.56386782 -390.20011074 326.75618246 -386.9375 323.9375 C-382.27872368 319.92329496 -377.57279778 315.99581811 -372.74609375 312.18359375 C-369.89910693 309.91977351 -367.08111536 307.62309988 -364.26464844 305.3215332 C-357.65241289 299.9209191 -350.97812847 294.62437913 -344.19140625 289.4453125 C-340.87368901 286.91141233 -337.59112045 284.33418719 -334.3125 281.75 C-326.67271963 275.73230603 -318.99439625 269.76464326 -311.31445312 263.79833984 C-307.54184366 260.86700637 -303.77099645 257.93340802 -300 255 C-298.50000877 253.83332206 -297.00000876 252.6666554 -295.5 251.5 C-294.7575 250.9225 -294.015 250.345 -293.25 249.75 C-291 248 -288.75 246.25 -286.5 244.5 C-285.75709717 243.92217773 -285.01419434 243.34435547 -284.2487793 242.74902344 C-282.75288338 241.58556688 -281.25695255 240.42215522 -279.76098633 239.25878906 C-275.94790224 236.29338002 -272.13547936 233.32712738 -268.32421875 230.359375 C-261.72798614 225.22405297 -255.13031163 220.0912807 -248.5 215 C-236.72388898 205.95630313 -225.0167187 196.82300821 -213.3515625 187.63671875 C-211.1000418 185.86372825 -208.84463236 184.09587245 -206.5859375 182.33203125 C-199.65180164 176.9116718 -192.79107044 171.4101596 -185.97241211 165.84521484 C-181.58001447 162.26638183 -177.15169047 158.73878488 -172.6875 155.25 C-166.72006252 150.58535415 -160.84494273 145.81754512 -155 141 C-153.16724924 139.49928825 -151.33391105 137.99929362 -149.5 136.5 C-148.58992188 135.75492188 -147.67984375 135.00984375 -146.7421875 134.2421875 C-144.93675589 132.7659514 -143.12950859 131.29193264 -141.3203125 129.8203125 C-135.77517218 125.30383589 -130.29069465 120.72379395 -124.84301758 116.09082031 C-121.36795885 113.14065907 -117.85564826 110.24350085 -114.3125 107.375 C-109.91198425 103.79599877 -105.70167479 100.052077 -101.51171875 96.23046875 C-99.00541256 94.00480649 -96.43075607 91.90478439 -93.8125 89.8125 C-87.73961819 84.90416229 -82.10480962 79.56499401 -76.42578125 74.2109375 C-73.99341837 71.92034812 -71.53567481 69.67659232 -69 67.5 C-65.05318959 64.09967104 -61.24801077 60.55129235 -57.4375 57 C-56.81166016 56.41798828 -56.18582031 55.83597656 -55.54101562 55.23632812 C-52.4817515 52.37651129 -49.47349728 49.48413552 -46.53515625 46.5 C-44.17049296 44.11450705 -41.7400434 41.87111 -39.19140625 39.68359375 C-34.2061317 35.37807478 -29.58280416 30.72880779 -24.9375 26.0625 C-24.07833984 25.20720703 -23.21917969 24.35191406 -22.33398438 23.47070312 C-17.88453147 19.01445198 -13.5933168 14.48933946 -9.48999023 9.71264648 C-7.60489504 7.54585265 -5.61075924 5.51232487 -3.5625 3.5 C-2.54349609 2.49453125 -2.54349609 2.49453125 -1.50390625 1.46875 C-0.75947266 0.74171875 -0.75947266 0.74171875 0 0 Z " fill="#000000" transform="translate(1052,521)"/>
<path d="M0 0 C3.92434365 4.57682488 6.93817463 9.61648597 10.0625 14.75 C24.32070701 37.96173059 39.45117634 60.63423067 55 83 C55.79156494 84.14299561 55.79156494 84.14299561 56.59912109 85.30908203 C64.62683108 96.89592086 72.84368845 108.32197352 81.25 119.63671875 C83.00880697 122.01189334 84.75612287 124.39509669 86.5 126.78125 C93.95651889 136.97560381 101.58415938 147.01561837 109.38769531 156.94677734 C110.88485532 158.85336663 112.37698384 160.76375297 113.8671875 162.67578125 C119.21532367 169.5267312 124.65671372 176.29578586 130.15551758 183.02636719 C133.74732114 187.43077423 137.26487297 191.88594465 140.75 196.375 C144.58217432 201.29943325 148.59386323 205.97927123 152.8203125 210.57421875 C155.13592892 213.15127574 157.32205066 215.80582391 159.5 218.5 C163.11732664 222.97141766 166.89825788 227.24413836 170.7734375 231.4921875 C172.97860757 233.97590536 175.05511004 236.52794705 177.125 239.125 C181.65245123 244.72851799 186.54350093 249.94940933 191.50830078 255.16650391 C195.20274881 259.05276963 198.78375324 263.01031387 202.29833984 267.05981445 C205.52369309 270.73727245 208.88838108 274.28414258 212.23680115 277.84913635 C215.20979466 281.01594325 218.17763673 284.18669382 221.11938477 287.38256836 C232.11984124 299.29051808 243.58168269 310.73556415 255.05444336 322.18481445 C257.89396173 325.01858086 260.72888822 327.85689235 263.56256008 330.69650364 C265.77852447 332.91609983 267.9968872 335.13328674 270.21595955 337.34977531 C271.26233001 338.39548662 272.30798032 339.44191911 273.35284233 340.48913765 C278.52441833 345.66984063 283.71362397 350.77964981 289.301651 355.51573181 C291.11855461 357.10361053 292.81090486 358.77747674 294.5 360.5 C297.39999353 363.4454073 300.43626431 366.15463709 303.56640625 368.8515625 C306.76595153 371.67620119 309.88052864 374.58750584 313 377.5 C317.30533885 381.51605179 321.62967672 385.49129246 326.08984375 389.3359375 C328.36204511 391.31540126 330.58459872 393.3458317 332.8125 395.375 C337.079589 399.22705299 341.4810325 402.86937849 345.94921875 406.484375 C349.52057354 409.42925654 353.01195045 412.45738262 356.5 415.5 C362.57192931 420.78904188 368.73600753 425.93902596 375 431 C376.30643741 432.06455482 377.61239237 433.12970188 378.91796875 434.1953125 C379.95219971 435.03775513 379.95219971 435.03775513 381.00732422 435.8972168 C382.41630317 437.04678379 383.82289444 438.19928364 385.22705078 439.35473633 C388.66048531 442.16640976 392.10460356 444.74441563 395.8125 447.1875 C402.13654348 452.06228351 405.63446048 459.75937183 409.55859375 466.55175781 C411.87006697 470.477817 414.34904463 474.29327485 416.8125 478.125 C432.60065242 502.95041975 446.45522666 528.9033062 460 555 C456.63063871 555 456.02964146 554.56691112 453.40234375 552.6484375 C452.69263428 552.13410156 451.9829248 551.61976563 451.25170898 551.08984375 C450.48802002 550.52394531 449.72433105 549.95804688 448.9375 549.375 C448.13965088 548.79105469 447.34180176 548.20710937 446.51977539 547.60546875 C439.3950248 542.36028789 432.40891606 536.94171376 425.44921875 531.48046875 C421.07887281 528.05216452 416.66894913 524.67779218 412.25 521.3125 C400.56476823 512.39622983 389.06392403 503.27592526 377.671875 493.98828125 C374.79387546 491.64278467 371.90344164 489.31398453 369 487 C359.0618458 479.06617942 349.18819884 471.06084669 339.51025391 462.81103516 C336.40469714 460.16942711 333.2612186 457.59026787 330.0625 455.0625 C325.34700216 451.32684587 320.79409754 447.41934461 316.24023438 443.49023438 C312.72247283 440.46030975 309.17147197 437.48404874 305.5625 434.5625 C299.23612825 429.42174404 293.10465301 424.06369142 286.96142578 418.70703125 C284.99773031 416.99802468 283.02909541 415.29490251 281.05859375 413.59375 C275.57735727 408.86020476 270.10695356 404.12457385 264.75 399.25 C261.54259211 396.33704267 258.26102941 393.57779499 254.875 390.875 C249.27148201 386.34754877 244.05059067 381.45649907 238.83349609 376.49169922 C234.92460293 372.77574059 230.94636984 369.16896561 226.87280273 365.63427734 C224.24694682 363.34285778 221.68670975 360.98801758 219.125 358.625 C215.50063655 355.28771484 211.86150724 351.97026521 208.1875 348.6875 C203.31400504 344.31385067 198.52907732 339.8489723 193.75 335.37280273 C190.12556375 331.97900413 186.48547845 328.60402112 182.82421875 325.25 C177.58060306 320.44439517 172.47158881 315.55156263 167.51171875 310.44921875 C165.59589435 308.5810665 163.67799926 306.86416734 161.64208984 305.13769531 C155.55764209 299.82819845 149.91627238 294.06022612 144.21484375 288.34765625 C142.98765878 287.12114646 141.76032553 285.89478502 140.53285217 284.66856384 C137.97201619 282.10919472 135.41297829 279.54804507 132.85522461 276.9855957 C129.59522046 273.71989492 126.33074635 270.45870525 123.06490231 267.19884586 C120.53303715 264.67061373 118.00358256 262.13998061 115.47482491 259.60864067 C114.27281401 258.40596808 113.07007481 257.20402291 111.86655998 256.0028553 C106.18296805 250.3279204 100.52087982 244.67205242 95.32142639 238.54161072 C93.49358809 236.40920657 91.51487033 234.45472495 89.5 232.5 C86.17230537 229.21145472 83.04663559 225.83618376 80.00390625 222.28515625 C77.94319219 219.93521916 75.82525813 217.64966874 73.69213867 215.36572266 C68.64169795 209.95728995 63.83655063 204.44308379 59.203125 198.66796875 C56.93072182 195.91610462 54.55305169 193.30261857 52.125 190.6875 C47.38525902 185.53019297 43.05849562 180.14300487 38.8046875 174.5859375 C36.9699807 172.2001749 35.06974371 169.91325655 33.0703125 167.6640625 C25.08937958 158.53053688 21.88128019 149.67240664 19 138 C18.69497559 136.80826172 18.38995117 135.61652344 18.07568359 134.38867188 C7.80811838 94.19060717 -0.45310269 51.30170921 -0.0625 9.6875 C-0.05573242 8.27307617 -0.05573242 8.27307617 -0.04882812 6.83007812 C-0.03727094 4.5533121 -0.02098783 2.27669511 0 0 Z " fill="#000000" transform="translate(15,288)"/>
<path d="M0 0 C0.33 0 0.66 0 1 0 C2.42492432 46.38920278 -6.4474517 93.90405688 -18.1875 138.625 C-18.50823486 139.85766602 -18.82896973 141.09033203 -19.15942383 142.36035156 C-21.54330705 151.15764965 -24.22502005 158.32912184 -30.1875 165.3125 C-30.97769531 166.24964844 -31.76789063 167.18679688 -32.58203125 168.15234375 C-33.37996094 169.09207031 -34.17789062 170.03179687 -35 171 C-36.46174462 172.78888463 -37.92010389 174.58054107 -39.375 176.375 C-44.03866542 182.07323938 -48.78415069 187.69878191 -53.55859375 193.30419922 C-55.00199616 195.00234846 -56.43881423 196.70590193 -57.875 198.41015625 C-63.77689859 205.38611359 -69.86041941 212.14971947 -76.12670898 218.80053711 C-79.10578939 221.96307384 -82.0430451 225.14107869 -84.875 228.4375 C-87.69317943 231.71593486 -90.7030007 234.74772482 -93.8125 237.75 C-95.6384171 239.62808616 -97.33045532 241.53937661 -99.03076172 243.52856445 C-103.37106805 248.50120961 -108.01592164 253.1414382 -112.6953125 257.79296875 C-113.60578339 258.70202469 -114.51625427 259.61108063 -115.45431519 260.54768372 C-117.85359459 262.94318302 -120.255859 265.335666 -122.65881348 267.72747803 C-125.09858186 270.15698845 -127.53550345 272.58935065 -129.97265625 275.02148438 C-133.54290163 278.58381446 -137.11465444 282.14462508 -140.68798828 285.70385742 C-145.25853739 290.25678796 -149.82167412 294.81662114 -154.36328125 299.3984375 C-156.01295516 301.05735698 -157.66269658 302.71620932 -159.3125 304.375 C-160.12912109 305.2 -160.94574219 306.025 -161.78710938 306.875 C-166.15185903 311.2571391 -170.58632622 315.46866021 -175.27807617 319.49853516 C-177.4588437 321.40009766 -179.48583442 323.4238601 -181.5 325.5 C-184.80918993 328.91101116 -188.29961747 332.02788768 -191.88574219 335.13964844 C-195.29205181 338.13688624 -198.57936452 341.25720112 -201.875 344.375 C-207.84628301 349.99836086 -213.87502079 355.5439605 -220 361 C-221.66745109 362.49912796 -223.33410291 363.99914535 -225 365.5 C-226.23363281 366.60988281 -226.23363281 366.60988281 -227.4921875 367.7421875 C-229.18592894 369.26708244 -230.87861169 370.79315402 -232.5703125 372.3203125 C-238.72450123 377.87225646 -244.91482631 383.37295293 -251.22265625 388.75 C-256.78122479 393.49079323 -262.30937974 398.24086217 -267.6875 403.1875 C-272.09621567 407.23420969 -276.66065675 411.02753715 -281.31640625 414.78515625 C-283.94708557 416.95632827 -286.47942424 419.20241357 -289 421.5 C-293.19729034 425.32170863 -297.53710231 428.91474189 -301.94921875 432.484375 C-305.52057229 435.42925551 -309.01197894 438.45735149 -312.5 441.5 C-317.60436252 445.94696802 -322.75612711 450.31450837 -328.015625 454.578125 C-331.73427198 457.59587517 -335.42971946 460.64121586 -339.125 463.6875 C-339.84421631 464.27990479 -340.56343262 464.87230957 -341.30444336 465.48266602 C-345.04444933 468.56327927 -348.78284891 471.64582494 -352.51953125 474.73046875 C-359.96884992 480.8774647 -367.43912904 486.99037156 -375 493 C-376.14882822 493.92008527 -377.29723217 494.84070043 -378.4453125 495.76171875 C-386.92229535 502.56097692 -395.43636879 509.31021038 -404 516 C-404.68964844 516.53882813 -405.37929688 517.07765625 -406.08984375 517.6328125 C-416.30687182 525.60974351 -426.55734077 533.54186782 -436.87695312 541.38574219 C-438.33503195 542.49439182 -439.79200476 543.60449712 -441.24804688 544.71582031 C-443.45381177 546.39816727 -445.66377945 548.07483291 -447.875 549.75 C-448.54740723 550.26385254 -449.21981445 550.77770508 -449.91259766 551.30712891 C-452.58915562 553.32611702 -454.79640802 554.93213601 -458 556 C-456.65695404 551.62403156 -454.94570692 547.73392743 -452.796875 543.6953125 C-452.48289261 543.10345154 -452.16891022 542.51159058 -451.84541321 541.90179443 C-450.81929842 539.9730948 -449.78538883 538.04873527 -448.75 536.125 C-448.39308075 535.45905823 -448.0361615 534.79311646 -447.66842651 534.10699463 C-440.75557771 521.21950647 -433.52139199 508.54284269 -426 496 C-425.66250732 495.43649841 -425.32501465 494.87299683 -424.97729492 494.29241943 C-420.33601727 486.54547894 -415.6543137 478.82444712 -410.92431641 471.13134766 C-409.71910108 469.17015865 -408.51764568 467.20664854 -407.32177734 465.23974609 C-402.05143066 456.5893751 -397.20865593 449.15328042 -389 443 C-387.92633395 442.16016815 -386.85488002 441.31750378 -385.78515625 440.47265625 C-384.00748304 439.07025299 -382.22813988 437.67049571 -380.44091797 436.28027344 C-375.75165006 432.6290109 -371.19865902 428.84027882 -366.68017578 424.98071289 C-363.36417557 422.14915722 -360.01460427 419.36872694 -356.625 416.625 C-346.89655225 408.70022067 -337.47943516 400.39453729 -328.18359375 391.96875 C-326.18262015 390.16465216 -324.1604969 388.38992983 -322.125 386.625 C-318.20538433 383.21114119 -314.37832595 379.69901248 -310.55419922 376.17919922 C-307.4737536 373.34526628 -304.37331602 370.53679712 -301.25 367.75 C-291.07599377 358.60482587 -281.06796628 349.26791096 -271.51245117 339.47558594 C-268.84486141 336.76083387 -266.10851258 334.19762143 -263.22265625 331.71484375 C-258.40823693 327.54814521 -253.92721084 323.07370986 -249.4375 318.5625 C-248.62603516 317.75490234 -247.81457031 316.94730469 -246.97851562 316.11523438 C-242.72361742 311.85346789 -238.65279583 307.50992047 -234.72680664 302.94506836 C-231.01415311 298.7631497 -226.95132202 294.91394037 -222.9609375 291 C-218.99034791 287.0754018 -215.21453138 283.05954041 -211.59179688 278.81054688 C-209.96412975 276.95920034 -208.26011971 275.22516074 -206.5 273.5 C-203.52942594 270.57532885 -200.79270881 267.51380439 -198.07421875 264.35546875 C-195.98564876 261.98370283 -193.84467193 259.67111633 -191.68798828 257.36157227 C-186.66313852 251.9795987 -181.88867773 246.49149901 -177.27734375 240.74609375 C-174.78172522 237.73679731 -172.16215811 234.86079924 -169.5 232 C-165.29093319 227.47150479 -161.32556888 222.80023549 -157.44921875 217.984375 C-154.51352818 214.4072337 -151.48125627 210.92265741 -148.4375 207.4375 C-144.23005664 202.6102905 -140.11069115 197.74316682 -136.1484375 192.7109375 C-133.90027735 189.87416815 -131.61511002 187.07028533 -129.32446289 184.26782227 C-123.99127732 177.73943924 -118.75536539 171.15748254 -113.64453125 164.453125 C-111.70214735 161.90705744 -109.73732155 159.379753 -107.76171875 156.859375 C-99.29648286 146.05659862 -91.07369402 135.098162 -83 124 C-82.44425293 123.23655273 -81.88850586 122.47310547 -81.31591797 121.68652344 C-74.0055596 111.63183036 -66.7785156 101.51953696 -59.64257812 91.34033203 C-58.50536225 89.72003604 -57.36588694 88.10132437 -56.22460938 86.48388672 C-37.39756373 59.79581023 -19.00797428 32.44720022 -2.57373047 4.21142578 C-1.7411981 2.7924197 -0.87468478 1.39341844 0 0 Z " fill="#000000" transform="translate(1105,288)"/>
<path d="M0 0 C2 1 2 1 3.078125 3.64746094 C3.46484375 4.83114258 3.8515625 6.01482422 4.25 7.234375 C4.46416565 7.88664062 4.6783313 8.53890625 4.89898682 9.2109375 C5.60902072 11.38761865 6.30558857 13.5682877 7 15.75 C7.3624884 16.87927917 7.3624884 16.87927917 7.7322998 18.03137207 C13.43929242 35.85342243 18.38903212 53.86629726 23 72 C23.16844421 72.66175232 23.33688843 73.32350464 23.51043701 74.00531006 C33.56136124 113.66337461 41.14778655 154.9644363 43.82275391 195.83544922 C43.99787147 197.97400619 44.29176692 200.06930562 44.60546875 202.19140625 C46.1480381 215.53928883 38.99957576 225.08220171 31.984375 235.91259766 C29.44499825 239.86350297 27.03232666 243.88398067 24.61767578 247.91186523 C18.41065162 258.24328217 11.99292875 268.44357326 5.51855469 278.60888672 C3.97596921 281.03783884 2.44410997 283.47328979 0.9140625 285.91015625 C-8.46847714 300.81067108 -18.23403511 315.44930965 -28.03430176 330.07669067 C-30.70759841 334.06674176 -33.37445064 338.06099449 -36.03591919 342.0589447 C-39.78268727 347.68701272 -43.53499414 353.30993328 -47.375 358.875 C-47.82286865 359.5251709 -48.2707373 360.1753418 -48.73217773 360.84521484 C-54.0920921 368.60759385 -59.53697463 376.3099729 -65 384 C-65.42635742 384.60021973 -65.85271484 385.20043945 -66.29199219 385.81884766 C-68.74218676 389.26485882 -71.20125731 392.70439118 -73.66650391 396.13964844 C-74.59209621 397.43093613 -75.51614144 398.72333361 -76.43896484 400.01660156 C-83.45080679 409.8417949 -90.63162513 419.51679365 -97.97583008 429.09619141 C-102.49138536 434.9935945 -106.9267068 440.94309775 -111.3125 446.9375 C-116.62609859 454.19048765 -122.08072381 461.30701016 -127.68212891 468.33935547 C-129.01868234 470.02354155 -130.34487521 471.71538011 -131.66796875 473.41015625 C-137.69320023 481.12589677 -143.82930306 488.7449631 -150.015625 496.33203125 C-152.34161088 499.18592613 -154.64709557 502.05491835 -156.9375 504.9375 C-165.36179476 515.49003765 -173.98072074 525.88342514 -182.80493164 536.10351562 C-185.82465026 539.60681546 -188.77701691 543.15469736 -191.6875 546.75 C-195.28755167 551.18333669 -199.03903487 555.44513346 -202.8828125 559.66796875 C-204.78051169 561.75823889 -206.64733415 563.86986115 -208.5 566 C-211.08653312 568.97391711 -213.72194125 571.89780743 -216.375 574.8125 C-219.55759788 578.33010818 -222.59117962 581.92747051 -225.5625 585.625 C-228.87539326 589.72146454 -232.35147837 593.4624731 -236.125 597.1328125 C-237.88245583 598.8829456 -239.51011416 600.681158 -241.125 602.5625 C-246.2713265 608.5373734 -251.72170812 614.23526551 -257.11523438 619.98583984 C-258.98305553 621.98189224 -260.84418514 623.9839577 -262.703125 625.98828125 C-268.31069911 632.0296403 -273.91261018 638.04484475 -279.83984375 643.77734375 C-281.62348091 645.61258705 -283.2707597 647.47683555 -284.92895508 649.42236328 C-289.80581339 655.00867296 -295.05794495 660.22222492 -300.296875 665.46484375 C-301.37834677 666.54953533 -302.45974603 667.63429919 -303.54107666 668.71913147 C-305.79173535 670.97573602 -308.04440829 673.23030726 -310.29833984 675.48364258 C-313.18738841 678.37258874 -316.06944932 681.26840181 -318.94987106 684.16594601 C-321.17347849 686.40064938 -323.40159308 688.63081591 -325.63101959 690.8597126 C-326.69636948 691.92624238 -327.76009855 692.99439374 -328.82216644 694.06419182 C-330.30090676 695.55270105 -331.78581329 697.03477487 -333.27246094 698.51538086 C-334.11516541 699.35951035 -334.95786987 700.20363983 -335.82611084 701.073349 C-338 703 -338 703 -341 704 C-339.44894759 699.50077216 -337.00611 695.77884591 -334.3359375 691.8828125 C-333.87159805 691.19747437 -333.40725861 690.51213623 -332.92884827 689.80603027 C-331.41569668 687.57571598 -329.89557998 685.35025496 -328.375 683.125 C-327.32404039 681.58009203 -326.27334227 680.03500614 -325.22290039 678.48974609 C-317.49344596 667.13259092 -309.69247911 655.82614872 -301.80566406 644.57763672 C-299.98829161 641.98328594 -298.17701679 639.38477357 -296.3671875 636.78515625 C-290.28761675 628.06117552 -284.14133259 619.39232629 -277.89379883 610.7878418 C-273.86882558 605.23331777 -269.92203845 599.6275785 -266 594 C-260.98707719 586.80787714 -255.90209463 579.67394128 -250.75390625 572.578125 C-246.62549195 566.88272133 -242.5611994 561.14470268 -238.5168457 555.3894043 C-234.91124584 550.26733676 -231.24562766 545.19150336 -227.5625 540.125 C-222.53358771 533.1997437 -217.67201626 526.17435066 -212.86645508 519.09277344 C-209.25225439 513.7836559 -205.53771122 508.56138574 -201.75 503.375 C-189.18944136 486.11584095 -177.47360086 468.25135 -165.625 450.5 C-165.12688812 449.75421692 -164.62877625 449.00843384 -164.11557007 448.24005127 C-141.03449055 413.6653709 -119.1302438 378.38291549 -99 342 C-98.4622998 341.02901367 -97.92459961 340.05802734 -97.37060547 339.05761719 C-58.67784343 268.88348374 -27.36775857 194.28250142 0 0 Z " fill="#000000" transform="translate(1062,15)"/>
<path d="M0 0 C0.33 0 0.66 0 1 0 C1.02870178 0.55090302 1.05740356 1.10180603 1.0869751 1.66940308 C2.53245236 29.21503067 3.98120776 56.69178852 8 84 C8.15148499 85.03401947 8.15148499 85.03401947 8.30603027 86.08892822 C13.21526811 119.29449395 20.79749755 152.01977584 31 184 C31.39380859 185.24958496 31.78761719 186.49916992 32.19335938 187.78662109 C48.13345395 238.21682569 69.71875679 287.32047444 95.58203125 333.44921875 C97.0264805 336.04763572 98.43935193 338.6609895 99.84375 341.28125 C110.3162396 360.79671311 121.73254467 379.75251624 133.3125 398.625 C133.92125977 399.61790039 134.53001953 400.61080078 135.15722656 401.63378906 C144.6759243 417.06169436 154.70348214 432.17223116 164.6706543 447.31225586 C165.93489225 449.23365609 167.19790781 451.15586118 168.4597168 453.07885742 C175.12161482 463.2313456 181.81799302 473.33046757 188.94604492 483.1628418 C191.48570657 486.67091359 193.939818 490.23158401 196.375 493.8125 C201.668727 501.55138403 207.06758979 509.21299947 212.48828125 516.86328125 C213.98534073 518.97928005 215.47783187 521.09842052 216.96875 523.21875 C222.63757674 531.27720238 228.36329346 539.29091503 234.14428711 547.26928711 C238.30294164 553.01573517 242.40045858 558.80302685 246.48046875 564.60546875 C250.11454566 569.7656672 253.79671401 574.8892894 257.5 580 C262.20980304 586.49975194 266.8627274 593.03631653 271.47827148 599.60327148 C275.12895895 604.78881852 278.83686231 609.9306194 282.5625 615.0625 C287.05665902 621.26028814 291.45834749 627.51097945 295.7746582 633.83374023 C299.39033676 639.12796467 303.06373653 644.37973403 306.75 649.625 C319.10420833 667.23386267 331.11017279 685.07516373 343 703 C340 703 340 703 338.31762695 701.64233398 C337.71394287 701.01657471 337.11025879 700.39081543 336.48828125 699.74609375 C335.81216797 699.05580078 335.13605469 698.36550781 334.43945312 697.65429688 C333.73755859 696.92275391 333.03566406 696.19121094 332.3125 695.4375 C327.69105031 690.66767516 323.03096092 686.08720747 317.9934082 681.75756836 C314.49587309 678.67382614 311.22390121 675.36802673 307.9375 672.0625 C307.26912109 671.39798828 306.60074219 670.73347656 305.91210938 670.04882812 C302.70985825 666.84035299 299.61008303 663.59494051 296.66015625 660.15234375 C292.21301315 654.99874524 287.34476725 650.27624155 282.5 645.5 C276.96664569 640.04491095 271.52668044 634.59697397 266.47070312 628.69335938 C264.58245503 626.51924105 262.56619708 624.50451955 260.5 622.5 C257.21896632 619.25743741 254.14540004 615.92952978 251.14453125 612.4296875 C248.16551764 609.05455732 245.08053736 605.78234907 242 602.5 C237.80336527 598.02406333 233.64115652 593.5367082 229.63671875 588.88671875 C227.62126228 586.56341213 225.56151538 584.28251535 223.5 582 C217.1645691 574.97246321 210.98044059 567.82314098 204.83154297 560.63256836 C201.56462967 556.81510282 198.27820596 553.01547559 194.97851562 549.22631836 C189.96661694 543.46895116 185.03760058 537.66438065 180.234375 531.73046875 C177.73841181 528.68033192 175.1845269 525.68421595 172.625 522.6875 C168.32121795 517.63863038 164.19718034 512.47212185 160.12768555 507.23339844 C156.99276038 503.21543499 153.75419756 499.3062996 150.4375 495.4375 C145.55841486 489.73366 140.96399679 483.83743629 136.42333984 477.86181641 C133.64060612 474.22182886 130.816785 470.61365355 128 467 C109.68775806 443.47069954 91.57060262 419.74984894 74.45922852 395.32763672 C71.97816341 391.78934377 69.47787184 388.26875861 66.92578125 384.78125 C59.98042448 375.28840177 53.35717262 365.62551997 46.87207031 355.81201172 C43.01449849 349.98487235 39.0813312 344.23466891 35 338.5625 C27.89686462 328.65171461 21.45683365 318.31417285 14.92675781 308.02148438 C12.13123966 303.63763584 9.28470294 299.28787092 6.4375 294.9375 C-4.6981324 277.86217659 -15.40077386 260.51010445 -25.90698242 243.04150391 C-29.03935121 237.83819484 -32.1906482 232.65890085 -35.51953125 227.578125 C-36.03999023 226.77165527 -36.56044922 225.96518555 -37.09667969 225.13427734 C-38.03037817 223.69516246 -38.98120881 222.26691728 -39.95410156 220.85400391 C-43.41136933 215.47709299 -43.52004666 211.27446511 -43 205 C-42.90243408 203.70771484 -42.80486816 202.41542969 -42.7043457 201.08398438 C-42.32092485 196.32072404 -41.85553372 191.56682708 -41.375 186.8125 C-41.28730347 185.93996582 -41.19960693 185.06743164 -41.10925293 184.16845703 C-35.27545558 126.83264005 -22.82894017 70.87414189 -5.56640625 15.94140625 C-5.35115799 15.25354034 -5.13590973 14.56567444 -4.91413879 13.85696411 C-3.42846842 9.17497995 -1.75427395 4.58822406 0 0 Z " fill="#000000" transform="translate(58,15)"/>
</svg>
